<svg fill="none" height="301" viewBox="0 0 501 301" width="501" xmlns="http://www.w3.org/2000/svg" xmlns:xlink="http://www.w3.org/1999/xlink"><linearGradient id="a" gradientUnits="userSpaceOnUse" x1="222.996" x2="202.3" y1="284.112" y2="306.174"><stop offset=".08983" stop-color="#eee"/><stop offset=".8178" stop-color="#d6d7d8"/></linearGradient><linearGradient id="b" gradientUnits="userSpaceOnUse" x1="127.984" x2="185.12" y1="92.2906" y2="92.2906"><stop offset="0" stop-color="#a1c3fc"/><stop offset=".6955" stop-color="#81aef2"/><stop offset="1" stop-color="#78a9ef"/></linearGradient><linearGradient id="c" gradientUnits="userSpaceOnUse" x1="218.71" x2="228.933" y1="49.2282" y2="78.9963"><stop offset=".14" stop-color="#fcbca9"/><stop offset="1" stop-color="#d14c4c"/></linearGradient><linearGradient id="d" gradientUnits="userSpaceOnUse" x1="225.886" x2="224.879" y1="67.6602" y2="90.9303"><stop offset=".14" stop-color="#ff9374"/><stop offset="1" stop-color="#c63030"/></linearGradient><linearGradient id="e"><stop offset="0" stop-color="#ffbeb6"/><stop offset="1" stop-color="#f2a19c"/></linearGradient><linearGradient id="f" gradientUnits="userSpaceOnUse" x1="232.17" x2="211.122" xlink:href="#e" y1="91.9553" y2="62.4879"/><linearGradient id="g" gradientUnits="userSpaceOnUse" x1="150.169" x2="160.58" xlink:href="#e" y1="60.6277" y2="41.1234"/><linearGradient id="h" gradientUnits="userSpaceOnUse" x1="189.573" x2="139.09" y1="109.486" y2="68.07"><stop offset="0" stop-color="#bad3fd"/><stop offset=".6955" stop-color="#81aef2"/><stop offset="1" stop-color="#d0e1f9"/></linearGradient><path d="m430.392 114.146h-130.225l-.083-3.997h130.225z" fill="#036"/><path d="m193.673 300.241c4.783 0 8.66-3.877 8.66-8.66 0-4.782-3.877-8.659-8.66-8.659-4.782 0-8.659 3.877-8.659 8.659 0 4.783 3.877 8.66 8.659 8.66z" fill="#5e5e60"/><path d="m245.216 85.3369h-27.228v25.2291h27.228z" fill="#202459"/><path d="m266.361 110.232h-67.277v3.997h67.277z" fill="#add5ff"/><path d="m99.4194 99.4082h-22.3979v11.2408h22.3979z" fill="#202459"/><path d="m115.072 110.649h-52.8728v3.58h52.8728z" fill="#036"/><path d="m227.561 166.852h-113.989v21.066h113.989z" fill="#fb9779"/><path d="m149.793 187.917h41.382c0 3.664-2.997 6.578-6.578 6.578h-28.143c-3.747 0-6.661-2.914-6.661-6.578z" fill="#036"/><path d="m175.521 194.412h-10.158v18.567h10.158z" fill="#00468c"/><path d="m169.36 210.982h2.248c3.664 0 6.661 2.997 6.661 6.661v54.288h-15.57v-54.288c-.083-3.664 2.914-6.661 6.661-6.661z" fill="#036"/><path d="m170.527 271.931h38.302c4.746 0 8.493 3.83 8.493 8.493v2.747h-2.748v-.583-1.165c0-3.747-2.998-6.745-6.744-6.745h-37.303z" fill="#4d607d"/><path d="m170.527 271.931h16.154c4.746 0 8.492 3.83 8.492 8.493v2.747h-2.747v-.583-1.165c0-3.747-2.998-6.745-6.745-6.745h-15.154z" fill="#7c8da5"/><path d="m170.693 271.931h-38.302c-4.746 0-8.493 3.83-8.493 8.493v2.747h2.748v-.583-1.165c0-3.747 2.998-6.745 6.745-6.745h37.302z" fill="#4d607d"/><path d="m170.693 271.931h-16.153c-4.746 0-8.493 3.83-8.493 8.493v2.747h2.748v-.583-1.165c0-3.747 2.997-6.745 6.744-6.745h15.154z" fill="#7c8da5"/><path d="m147.38 300.241c4.783 0 8.66-3.877 8.66-8.66 0-4.782-3.877-8.659-8.66-8.659-4.782 0-8.659 3.877-8.659 8.659 0 4.783 3.877 8.66 8.659 8.66z" fill="#5e5e60"/><path d="m215.986 300.241c4.782 0 8.659-3.877 8.659-8.66 0-4.782-3.877-8.659-8.659-8.659-4.783 0-8.66 3.877-8.66 8.659 0 4.783 3.877 8.66 8.66 8.66z" fill="url(#a)"/><path d="m203.33 272.265-9.992 27.893h70.608s-3.664-6.994-15.737-12.157c-12.073-5.162-23.314-15.736-23.314-15.736z" fill="#d9d9d9"/><path d="m153.291 143.871s9.242 21.316 36.969 24.23 16.486 31.141 14.072 35.554c-2.415 4.413-5.412 8.243-7.161 15.07-1.749 6.828.749 15.654-1.998 20.65-2.748 4.996-14.322 21.815-10.741 32.889h40.549s23.397-92.09 21.815-101.166c-1.582-9.075.999-16.403-23.397-27.726-24.396-11.324-40.799-18.402-40.799-18.402z" fill="#005ab3"/><path d="m125.23 300.241c4.782 0 8.659-3.877 8.659-8.66 0-4.782-3.877-8.659-8.659-8.659-4.783 0-8.66 3.877-8.66 8.659 0 4.783 3.877 8.66 8.66 8.66z" fill="#5e5e60"/><path d="m501 114.146h-500.166016v20.399h500.166016z" fill="#add5ff"/><path d="m488.927 134.462h-481.09888v6.495h481.09888z" fill="#00468c"/><path d="m44.298 141.04-28.5595 154.621h-8.32639l28.64279-154.621z" fill="#00468c"/><path d="m489.425 295.661h-8.326l-28.56-154.621h8.243z" fill="#00468c"/><path d="m430.311 110.149h-87.344l13.655-48.1261h87.594z" fill="#52b786"/><path d="m329.728.241211h-196.419v85.345489h196.419z" fill="#0080ff"/><path d="m149.792 35.6284h-122.3975v64.5296h122.3975z" fill="#52b786"/><g fill="#fff"><path d="m98.3344 44.2876h-61.1156v2.3314h61.1156z"/><path d="m98.3344 49.7827h-61.1156v2.3314h61.1156z"/><path d="m98.3344 55.2783h-61.1156v2.3314h61.1156z"/><path d="m98.3344 60.7734h-61.1156v2.3314h61.1156z"/><path d="m416.484 71.4318-56.203-.1666.666-2.0816 56.203.1665z"/><path d="m415.154 76.1771-56.203-.0833.583-2.0816 56.203.0833z"/><path d="m413.738 80.9231-56.203-.0832.583-2.0816 56.203.1665z"/><path d="m412.322 85.8365-56.203-.1665.583-2.0816 56.203.1665z"/><path d="m203.746 44.9536 11.324-12.1566-2.997-2.7477-13.489 14.4047-.666.6661.749.6661 14.488 13.4055 2.748-2.9975z"/><path d="m254.371 44.9535-11.324-12.1565 2.997-2.7477 13.406 14.4879.666.6661-.75.6661-14.487 13.4055-2.748-2.9975z"/><path d="m233.057 24.8037-11.741 38.6345 3.747 1.0824 11.74-38.6345z"/></g><path d="m215.375 255.858-9.389 26.211h66.35s-3.443-6.572-14.788-11.423-21.908-14.788-21.908-14.788z" fill="#f5f5f5"/><path d="m151.687 130.593s-2.425 22.455 27.62 27.306 31.375 8.529 31.61 16.196c.235 7.668-2.035 12.206-4.851 20.109-2.817 7.902-2.895 18.778-1.409 25.115 1.487 6.338-5.085 14.24-8.137 21.673-1.878 4.773-2.582 9.937-2.034 15.023h41.155s11.032-74.252 11.815-85.206c.782-10.954 4.303-22.142-9.937-29.497s-44.754-20.812-44.754-20.812z" fill="#006dd9"/><path d="m147.774 51.3335s-26.915 38.5733-17.996 77.9295c0 0 29.185 14.161 55.318-11.111 0 0-24.099-47.1797-25.429-60.5591z" fill="url(#b)"/><path d="m217.018 61.7393h16.509v12.0493c0 4.538-3.678 8.2936-8.294 8.2936-4.538 0-8.294-3.6774-8.294-8.2936z" fill="url(#c)"/><path d="m224.373 66.7466h2.425c1.018 0 1.878.8607 1.878 1.8778v12.3622h-6.103v-12.3622c-.078-1.0171.783-1.8778 1.8-1.8778z" fill="url(#d)"/><path d="m215.062 84.0383s4.695-9.0761 7.434-10.7975c0 0 0 6.2594 2.816 6.1812 3.286-.0783 3.443-5.79 3.286-8.5284-.078-1.9561-.313-1.7996 1.487-1.2519 1.174.3912 7.902 3.6774 6.572 12.7535s-14.709 9.1543-16.509 10.2497c-.782.4695-1.565.9389-2.347 1.4084z" fill="url(#f)"/><path d="m159.744 57.5931-11.971-6.2594 3.678-7.9807c3.286 1.8778 7.042 2.7385 10.797 2.4255-.626 1.7214-3.208 9.3891-2.504 11.8146z" fill="url(#g)"/><path d="m147.908 50.8418s13.301.8607 18.622 17.6827c5.32 16.8221 6.572 29.6538 17.839 27.463s23.786-8.1372 30.593-13.4576l7.511 28.7151s-6.885 10.328-16.9 11.267c-10.015.938-17.527 6.885-23.395 9.389-5.868 2.503-19.326 6.572-25.898-2.817s-17.213-39.3559-15.648-65.6452c2.112-4.3033 4.538-8.5284 7.276-12.597z" fill="url(#h)"/><path d="m173.281 36.78s-1.799 7.0418-9.076 8.6849c-5.868 1.3301-10.953-1.1736-12.753-2.1908.156-.2347 2.895-4.851 0-6.7288-2.973-1.956-2.973-2.9732-3.051-4.3816-.079-1.4083 2.034-3.3644 5.555-2.1907 3.521 1.2518 7.041-1.7996 7.276-6.0247 3.599.626 7.198.3912 10.641-.7042.47 1.0954 3.052 7.8243 4.147 9.7021 1.252 2.0343-1.721 3.6774-2.739 3.8338z" fill="#ffbeb6"/><path d="m178.602 23.1661c-.391-.2347-.861-.3912-1.33-.3912-1.252 0-2.582 1.0172-3.208 2.7385-.079.2347-.157.5477-.235.8606-.235-.0782-.469-.1564-.782-.1564-.861 0-1.644.2347-2.348.7041 0-.1564 0-.3129-.078-.4694-.156-.9389-.548-1.7996-1.174-2.5038-.156-.2347-.391-.3912-.626-.5477-1.408-.8606-3.051-.4694-4.225.9389-.469.5477-.782 1.0954-1.095 1.7996-.469 1.2519-.626 2.6603-.391 4.0686.156.9389.626 1.8778 1.252 2.582.156.1565.313.313.547.4695.861.5477 2.035.6259 2.974.0782 1.095-.6259 1.877-1.6431 2.269-2.8167.313-.9389.547-1.8778.469-2.8167.704-.5477 1.643-.8607 2.504-.7825.078 0 .235.0783.313.0783v.1565.1565c0 .1564 0 .3129.078.4694.548 1.3301 1.095 2.6602 1.565 3.6774 1.565 1.0171 3.599 0 4.538-2.3473 1.095-2.1908.548-4.9292-1.017-5.9464zm-8.842 6.9636c-.391 1.0171-1.095 1.956-2.034 2.5037-.782.4695-1.721.3912-2.425-.0782-.783-.626-1.331-1.4866-1.487-2.5038-.235-1.1736-.078-2.4255.313-3.5991.313-.7824.782-1.5649 1.487-2.1126.782-.7824 2.034-.9389 3.051-.3129l.078.0782c.157.0783.235.1565.391.313.548.6259.939 1.3301 1.096 2.1125.078 1.1737 0 2.4255-.47 3.5992zm9.546-1.2519c-.783 1.9561-2.426 2.895-3.756 2.0343s-1.721-3.1297-.939-5.0857c.783-1.9561 2.426-2.895 3.756-2.0343 1.252.7824 1.721 3.1296.939 5.0857z" fill="#fff"/><path d="m182.356 6.65703c-.078-.15649-.234-.23474-.391-.1565-.156.07824-.235.23474-.235.31298 2.974 9.93679-4.772 16.35259-13.379 17.29149 3.834-.5477 8.294-2.269 11.189-7.0418 5.79-9.62376-2.661-13.30114-7.512-10.71915s-8.293 7.58945-8.293 7.58945-7.59-5.94636-19.874-1.0171c-12.284 4.9292-7.746 19.8735-3.364 24.1768 4.381 4.3033 10.954 6.1811 10.954 6.1811s2.973-4.7728 0-6.7288c-2.973-1.9561-2.973-2.9732-3.052-4.3816-.078-1.4083 2.035-3.3644 5.556-2.1907 3.442 1.1736 6.885-1.7214 7.276-5.79 5.712 1.4084 11.893.9389 16.587-2.9732 4.382-3.3644 6.182-9.2325 4.538-14.55297z" fill="#252533"/><path d="m177.262 178.187h-72.061l-18.1517-96.8641c-1.3301-7.1983 3.3644-14.1619 10.641-15.492.7824-.1565 1.643-.2347 2.4257-.2347h44.989c6.416 0 11.893 4.538 13.066 10.7974z" fill="#036"/></svg>